<?xml version="1.0" encoding="UTF-8"?>
<!DOCTYPE svg PUBLIC "-//W3C//DTD SVG 1.1//EN" "http://www.w3.org/Graphics/SVG/1.1/DTD/svg11.dtd">
<svg xmlns="http://www.w3.org/2000/svg" version="1.1" width="326px" height="100px" style="shape-rendering:geometricPrecision; text-rendering:geometricPrecision; image-rendering:optimizeQuality; fill-rule:evenodd; clip-rule:evenodd" xmlns:xlink="http://www.w3.org/1999/xlink">
<g><path style="opacity:0.801" fill="#ed1c24" d="M 259.5,13.5 C 264.179,13.3342 268.845,13.5008 273.5,14C 279.481,16.6741 281.148,21.1741 278.5,27.5C 272.505,31.9948 267.172,37.1615 262.5,43C 270.493,43.4997 278.493,43.6664 286.5,43.5C 286.296,46.5176 285.963,49.5176 285.5,52.5C 272.5,52.5 259.5,52.5 246.5,52.5C 246.192,50.076 246.526,47.7427 247.5,45.5C 249.297,43.8689 250.464,41.8689 251,39.5C 256.655,33.4231 262.822,27.9231 269.5,23C 268.056,21.9363 266.389,21.4363 264.5,21.5C 261.43,22.0612 258.43,22.5612 255.5,23C 253.081,21.4912 252.081,19.3245 252.5,16.5C 255.241,16.2927 257.574,15.2927 259.5,13.5 Z"/></g>
<g><path style="opacity:0.781" fill="#ed1c24" d="M 306.5,13.5 C 308.5,13.5 310.5,13.5 312.5,13.5C 311.482,18.9044 310.149,24.2377 308.5,29.5C 312.428,29.0003 316.428,29.6669 320.5,31.5C 320.833,34.1667 321.167,36.8333 321.5,39.5C 321.62,44.0508 320.953,48.3841 319.5,52.5C 316.167,52.5 312.833,52.5 309.5,52.5C 309.956,47.5376 311.289,42.8709 313.5,38.5C 310.858,35.9682 308.192,36.1349 305.5,39C 305.833,39.3333 306.167,39.6667 306.5,40C 304.328,43.8396 302.995,48.0063 302.5,52.5C 299.167,52.5 295.833,52.5 292.5,52.5C 292.678,49.7835 293.178,47.1168 294,44.5C 295.667,43.8333 297.333,43.1667 299,42.5C 299.667,41.1667 299.667,39.8333 299,38.5C 297.535,39.3685 296.369,38.8685 295.5,37C 297.807,30.2178 299.973,23.3844 302,16.5C 303.878,15.9473 305.378,14.9473 306.5,13.5 Z"/></g>
<g><path style="opacity:0.975" fill="#79d663" d="M 55.5,13.5 C 56.4706,15.4832 57.4706,17.4832 58.5,19.5C 53.9929,19.4468 49.9929,20.7801 46.5,23.5C 46.4506,20.9009 45.4506,18.7342 43.5,17C 46.8595,13.9026 50.8595,12.736 55.5,13.5 Z"/></g>
<g><path style="opacity:1" fill="#fa914c" d="M 58.5,13.5 C 69.5051,15.4887 76.5051,21.822 79.5,32.5C 80.8333,33.8333 82.1667,35.1667 83.5,36.5C 89.2608,42.7007 91.5941,50.0341 90.5,58.5C 89.8333,58.5 89.5,58.8333 89.5,59.5C 87.4289,55.6971 85.0956,52.0305 82.5,48.5C 81.197,46.8577 79.8637,45.1911 78.5,43.5C 76.2513,37.9946 73.2513,32.9946 69.5,28.5C 68.1798,26.5368 66.8465,24.5368 65.5,22.5C 64.5667,19.6298 62.9,17.2964 60.5,15.5C 59.5,15.1667 58.8333,14.5 58.5,13.5 Z"/></g>
<g><path style="opacity:1" fill="#b0bd51" d="M 55.5,13.5 C 56.5,13.5 57.5,13.5 58.5,13.5C 58.8333,14.5 59.5,15.1667 60.5,15.5C 60.366,17.2915 60.6993,18.9582 61.5,20.5C 60.209,20.7373 59.209,20.404 58.5,19.5C 57.4706,17.4832 56.4706,15.4832 55.5,13.5 Z"/></g>
<g><path style="opacity:0.796" fill="#d4a950" d="M 60.5,15.5 C 62.9,17.2964 64.5667,19.6298 65.5,22.5C 63.9382,22.2671 62.6049,21.6005 61.5,20.5C 60.6993,18.9582 60.366,17.2915 60.5,15.5 Z"/></g>
<g><path style="opacity:0.877" fill="#6ace87" d="M 54.5,10.5 C 53.3915,11.29 52.0581,11.79 50.5,12C 53.3647,12.1829 56.0314,12.6829 58.5,13.5C 57.5,13.5 56.5,13.5 55.5,13.5C 50.8595,12.736 46.8595,13.9026 43.5,17C 45.4506,18.7342 46.4506,20.9009 46.5,23.5C 44.0165,25.9368 42.6832,28.9368 42.5,32.5C 39.779,32.0372 37.1123,31.3705 34.5,30.5C 32.5675,27.6339 30.9009,24.6339 29.5,21.5C 31.8067,21.0137 33.9734,21.0137 36,21.5C 40.3088,14.6879 46.4755,11.0212 54.5,10.5 Z"/></g>
<g><path style="opacity:0.838" fill="#f58b07" d="M 86.5,20.5 C 88.5,20.5 90.5,20.5 92.5,20.5C 93.5053,25.522 94.6719,30.522 96,35.5C 98.3359,30.6565 100.169,25.6565 101.5,20.5C 102.833,20.5 104.167,20.5 105.5,20.5C 106.831,25.6565 108.664,30.6565 111,35.5C 112.328,30.522 113.495,25.522 114.5,20.5C 116.5,20.5 118.5,20.5 120.5,20.5C 119.19,28.269 117.357,35.9357 115,43.5C 114.484,46.2506 113.317,48.5839 111.5,50.5C 108.468,45.102 105.801,39.4353 103.5,33.5C 101.043,38.7033 98.8759,44.0367 97,49.5C 96,50.8333 95,50.8333 94,49.5C 90.7119,40.0135 88.2119,30.3468 86.5,20.5 Z"/></g>
<g><path style="opacity:0.903" fill="#f58b07" d="M 124.5,20.5 C 130.5,20.5 136.5,20.5 142.5,20.5C 142.5,22.5 142.5,24.5 142.5,26.5C 138.5,26.5 134.5,26.5 130.5,26.5C 130.5,28.5 130.5,30.5 130.5,32.5C 133.833,32.5 137.167,32.5 140.5,32.5C 140.5,34.1667 140.5,35.8333 140.5,37.5C 137.167,37.5 133.833,37.5 130.5,37.5C 130.5,39.5 130.5,41.5 130.5,43.5C 134.5,43.5 138.5,43.5 142.5,43.5C 142.5,45.5 142.5,47.5 142.5,49.5C 136.5,49.5 130.5,49.5 124.5,49.5C 124.5,39.8333 124.5,30.1667 124.5,20.5 Z"/></g>
<g><path style="opacity:0.883" fill="#f58b07" d="M 147.5,20.5 C 151.846,20.3343 156.179,20.501 160.5,21C 167.181,24.4161 168.181,29.0828 163.5,35C 169.075,40.1146 168.742,44.7813 162.5,49C 157.511,49.4993 152.511,49.6659 147.5,49.5C 147.5,39.8333 147.5,30.1667 147.5,20.5 Z M 153.5,26.5 C 158.667,25.4919 160.334,27.3252 158.5,32C 156.866,32.4935 155.199,32.6602 153.5,32.5C 153.5,30.5 153.5,28.5 153.5,26.5 Z M 153.5,37.5 C 158.479,36.65 160.479,38.4834 159.5,43C 157.527,43.4955 155.527,43.6621 153.5,43.5C 153.5,41.5 153.5,39.5 153.5,37.5 Z"/></g>
<g><path style="opacity:0.867" fill="#f58b07" d="M 181.5,20.5 C 188.061,19.9186 194.395,20.752 200.5,23C 206.549,28.3947 208.049,34.8947 205,42.5C 203.833,45 202,46.8333 199.5,48C 193.593,49.3608 187.593,49.8608 181.5,49.5C 181.982,44.4674 181.315,39.6341 179.5,35C 181.315,30.3659 181.982,25.5326 181.5,20.5 Z M 187.5,26.5 C 194.774,25.3005 199.107,28.3005 200.5,35.5C 198.587,41.9615 194.254,44.6282 187.5,43.5C 187.5,41.1667 187.5,38.8333 187.5,36.5C 189.833,36.5 192.167,36.5 194.5,36.5C 194.5,35.5 194.5,34.5 194.5,33.5C 192.167,33.5 189.833,33.5 187.5,33.5C 187.5,31.1667 187.5,28.8333 187.5,26.5 Z"/></g>
<g><path style="opacity:0.853" fill="#f58b07" d="M 210.5,20.5 C 216.833,20.5 223.167,20.5 229.5,20.5C 229.5,22.5 229.5,24.5 229.5,26.5C 225.167,26.5 220.833,26.5 216.5,26.5C 216.5,28.5 216.5,30.5 216.5,32.5C 220.167,32.5 223.833,32.5 227.5,32.5C 227.5,34.1667 227.5,35.8333 227.5,37.5C 223.833,37.5 220.167,37.5 216.5,37.5C 216.5,39.5 216.5,41.5 216.5,43.5C 220.833,43.5 225.167,43.5 229.5,43.5C 229.5,45.5 229.5,47.5 229.5,49.5C 223.167,49.5 216.833,49.5 210.5,49.5C 210.5,39.8333 210.5,30.1667 210.5,20.5 Z"/></g>
<g><path style="opacity:0.831" fill="#f58b07" d="M 233.5,20.5 C 238.179,20.3342 242.845,20.5008 247.5,21C 253.666,24.6556 255.166,29.8222 252,36.5C 248.673,39.1539 244.839,40.1539 240.5,39.5C 240.665,42.5184 240.498,45.5184 240,48.5C 237.959,49.4231 235.792,49.7564 233.5,49.5C 233.5,39.8333 233.5,30.1667 233.5,20.5 Z M 240.5,26.5 C 243.885,25.7896 246.219,26.9563 247.5,30C 246.219,33.0437 243.885,34.2104 240.5,33.5C 240.5,31.1667 240.5,28.8333 240.5,26.5 Z"/></g>
<g><path style="opacity:1" fill="#60b3de" d="M 54.5,10.5 C 69.0784,10.7455 77.4118,18.0788 79.5,32.5C 76.5051,21.822 69.5051,15.4887 58.5,13.5C 56.0314,12.6829 53.3647,12.1829 50.5,12C 52.0581,11.79 53.3915,11.29 54.5,10.5 Z"/></g>
<g><path style="opacity:0.642" fill="#ed1c24" d="M 290.5,24.5 C 291.695,24.8656 292.361,25.699 292.5,27C 290.757,30.812 289.09,34.6453 287.5,38.5C 283.235,39.4386 278.902,39.7719 274.5,39.5C 274.33,38.1779 274.663,37.0113 275.5,36C 280.53,32.1578 285.53,28.3245 290.5,24.5 Z"/></g>
<g><path style="opacity:1" fill="#5dc8a5" d="M 29.5,21.5 C 30.9009,24.6339 32.5675,27.6339 34.5,30.5C 31.2814,30.7759 28.6148,32.1093 26.5,34.5C 24.5879,32.3428 22.9213,30.0094 21.5,27.5C 23.4121,24.5389 26.0787,22.5389 29.5,21.5 Z"/></g>
<g><path style="opacity:0.875" fill="#d9a64f" d="M 69.5,28.5 C 73.2513,32.9946 76.2513,37.9946 78.5,43.5C 77.5084,43.6716 76.8417,43.3382 76.5,42.5C 74.4631,39.1466 72.1298,36.1466 69.5,33.5C 69.5,31.8333 69.5,30.1667 69.5,28.5 Z"/></g>
<g><path style="opacity:0.924" fill="#50c2c4" d="M 21.5,27.5 C 22.9213,30.0094 24.5879,32.3428 26.5,34.5C 26.3259,36.861 25.9926,39.1944 25.5,41.5C 21.6279,41.2422 17.9612,41.9089 14.5,43.5C 13.1769,41.5286 11.8435,39.5286 10.5,37.5C 11.8665,36.16 13.1999,34.8267 14.5,33.5C 17.2545,31.9904 19.5879,29.9904 21.5,27.5 Z"/></g>
<g><path style="opacity:1" fill="#a7c353" d="M 69.5,33.5 C 72.1298,36.1466 74.4631,39.1466 76.5,42.5C 73.7462,42.2155 71.0795,41.5488 68.5,40.5C 69.3742,38.2534 69.7076,35.9201 69.5,33.5 Z"/></g>
<g><path style="opacity:1" fill="#62ca9d" d="M 6.5,38.5 C 7.04309,38.56 7.37642,38.8933 7.5,39.5C 4.0765,44.3029 2.74316,49.6363 3.5,55.5C 2.6829,53.0314 2.1829,50.3647 2,47.5C 1.61742,48.056 1.11742,48.3893 0.5,48.5C 1.4977,44.4945 3.4977,41.1612 6.5,38.5 Z"/></g>
<g><path style="opacity:1" fill="#62b2df" d="M 83.5,36.5 C 89.8595,40.2112 92.8595,45.8779 92.5,53.5C 92.4954,55.6965 92.162,57.6965 91.5,59.5C 90.8333,59.5 90.5,59.1667 90.5,58.5C 91.5941,50.0341 89.2608,42.7007 83.5,36.5 Z"/></g>
<g><path style="opacity:1" fill="#3fb8f0" d="M 14.5,33.5 C 13.1999,34.8267 11.8665,36.16 10.5,37.5C 11.8435,39.5286 13.1769,41.5286 14.5,43.5C 7.40936,51.2791 8.07603,58.2791 16.5,64.5C 18.6805,67.5277 20.3472,70.861 21.5,74.5C 19.3792,74.6747 17.3792,74.3414 15.5,73.5C 14.0552,71.9373 12.3885,70.604 10.5,69.5C 6.99046,66.6423 4.65712,62.9757 3.5,58.5C 3.5,57.5 3.5,56.5 3.5,55.5C 2.74316,49.6363 4.0765,44.3029 7.5,39.5C 7.37642,38.8933 7.04309,38.56 6.5,38.5C 8.62906,36.0499 11.2957,34.3833 14.5,33.5 Z"/></g>
<g><path style="opacity:0.763" fill="#f58b07" d="M 217.5,51.5 C 223.158,50.6794 224.825,52.846 222.5,58C 217.279,58.6099 215.612,56.4432 217.5,51.5 Z"/></g>
<g><path style="opacity:0.891" fill="#53c2c0" d="M 40.5,63.5 C 43.9484,66.3161 46.2817,69.9827 47.5,74.5C 44.1667,74.5 40.8333,74.5 37.5,74.5C 33.1546,68.4622 28.8212,62.4622 24.5,56.5C 24.2317,53.8806 24.565,51.3806 25.5,49C 29.1117,47.85 32.7783,47.0166 36.5,46.5C 36.8082,52.4254 36.4749,58.2588 35.5,64C 37.3869,64.7796 39.0536,64.6129 40.5,63.5 Z"/></g>
<g><path style="opacity:1" fill="#56c4ba" d="M 58.5,45.5 C 61.7973,45.3287 62.1306,45.9954 59.5,47.5C 58.5159,50.4281 58.1826,53.4281 58.5,56.5C 57.8333,57.8333 57.1667,59.1667 56.5,60.5C 55.8917,55.0557 56.5583,50.0557 58.5,45.5 Z"/></g>
<g><path style="opacity:0.954" fill="#6fd17b" d="M 76.5,64.5 C 79.0918,65.6586 80.7585,67.6586 81.5,70.5C 83.5193,68.8103 85.5193,67.1436 87.5,65.5C 87.8333,65.5 88.1667,65.5 88.5,65.5C 83.6142,72.2734 76.9475,75.2734 68.5,74.5C 66.3073,69.3087 63.3073,64.642 59.5,60.5C 58.5713,59.3112 58.238,57.9778 58.5,56.5C 58.1826,53.4281 58.5159,50.4281 59.5,47.5C 62.1306,45.9954 61.7973,45.3287 58.5,45.5C 61.6189,44.1301 64.9523,43.1301 68.5,42.5C 68.5,49.8333 68.5,57.1667 68.5,64.5C 71.1667,64.5 73.8333,64.5 76.5,64.5 Z"/></g>
<g><path style="opacity:1" fill="#82d55b" d="M 3.5,55.5 C 3.5,56.5 3.5,57.5 3.5,58.5C 2.5,57.8333 1.5,57.1667 0.5,56.5C 0.5,53.8333 0.5,51.1667 0.5,48.5C 1.11742,48.3893 1.61742,48.056 2,47.5C 2.1829,50.3647 2.6829,53.0314 3.5,55.5 Z"/></g>
<g><path style="opacity:0.677" fill="#faf7f6" d="M 130.5,55.5 C 135.297,55.1211 139.964,55.6211 144.5,57C 147.883,60.2692 150.383,64.1026 152,68.5C 153.136,65.9036 153.969,63.237 154.5,60.5C 155.5,60.5 156.5,60.5 157.5,60.5C 157.643,62.2624 157.309,63.9291 156.5,65.5C 158.046,66.684 159.713,67.684 161.5,68.5C 159.455,70.0514 157.955,72.0514 157,74.5C 156.196,75.8045 155.029,76.4712 153.5,76.5C 151.5,75.1667 149.5,75.1667 147.5,76.5C 144.453,76.0322 141.619,75.0322 139,73.5C 137.938,74.8993 136.605,75.8993 135,76.5C 132.882,75.8041 130.716,75.6374 128.5,76C 127.715,73.5571 127.881,71.0571 129,68.5C 129.71,67.0267 130.876,66.3601 132.5,66.5C 132.351,67.552 132.517,68.552 133,69.5C 133.71,68.0267 134.876,67.3601 136.5,67.5C 136.343,68.8734 136.51,70.2068 137,71.5C 137.036,69.0588 137.869,67.0588 139.5,65.5C 139.976,68.1841 140.976,70.5175 142.5,72.5C 143.554,69.5494 145.221,67.0494 147.5,65C 145.75,60.1961 142.25,57.6961 137,57.5C 134.485,58.1147 132.152,59.1147 130,60.5C 127.99,58.6037 128.157,56.937 130.5,55.5 Z"/></g>
<g><path style="opacity:0.906" fill="#58c6b1" d="M 42.5,40.5 C 42.334,45.8437 42.5006,51.1771 43,56.5C 46.8405,62.2245 50.0072,68.2245 52.5,74.5C 50.8333,74.5 49.1667,74.5 47.5,74.5C 46.2817,69.9827 43.9484,66.3161 40.5,63.5C 40.3337,56.1591 40.5003,48.8258 41,41.5C 41.3826,40.944 41.8826,40.6107 42.5,40.5 Z"/></g>
<g><path style="opacity:0.687" fill="#faf7f6" d="M 91.5,62.5 C 95.6799,59.6632 100.18,58.9966 105,60.5C 107.145,60.604 108.979,59.9373 110.5,58.5C 112.111,59.3202 112.778,60.6536 112.5,62.5C 108.835,62.8171 107.335,64.8171 108,68.5C 109.869,65.3091 112.369,64.6424 115.5,66.5C 115.302,68.5753 115.135,70.5753 115,72.5C 115.922,69.2445 117.922,66.9111 121,65.5C 123.298,66.065 124.131,67.2317 123.5,69C 124.5,69.3333 125.5,69.6667 126.5,70C 123.833,71.3333 121.833,73.3333 120.5,76C 118.074,75.9521 115.741,76.1188 113.5,76.5C 112.522,76.0233 111.689,75.3567 111,74.5C 110.047,76.5922 108.714,76.9255 107,75.5C 106.333,70.1667 105.667,70.1667 105,75.5C 103.989,76.3366 102.822,76.67 101.5,76.5C 101.894,71.5416 103.561,67.0416 106.5,63C 102.705,62.1628 99.0387,62.4961 95.5,64C 92.6667,65.8333 92.8333,67.3333 96,68.5C 97.9552,67.5467 99.6218,66.2134 101,64.5C 102.322,66.4744 101.822,68.3078 99.5,70C 93.1653,71.5001 90.4987,69.0001 91.5,62.5 Z"/></g>
<g><path style="opacity:0.587" fill="#faf7f6" d="M 308.5,58.5 C 313.394,59.5396 313.727,61.5396 309.5,64.5C 307.454,62.719 307.12,60.719 308.5,58.5 Z"/></g>
<g><path style="opacity:1" fill="#c5b34f" d="M 82.5,48.5 C 85.0956,52.0305 87.4289,55.6971 89.5,59.5C 89.0113,60.9952 88.3446,62.3285 87.5,63.5C 86.31,61.1307 84.6433,59.1307 82.5,57.5C 83.6776,54.5227 83.6776,51.5227 82.5,48.5 Z"/></g>
<g><path style="opacity:0.682" fill="#faf7f6" d="M 172.5,68.5 C 173.628,65.8146 174.962,63.1479 176.5,60.5C 177.72,60.8869 178.387,61.7202 178.5,63C 177.813,64.1618 177.647,65.3284 178,66.5C 179.367,65.4757 180.2,65.9757 180.5,68C 177.987,75.1316 178.487,75.2983 182,68.5C 184.855,64.9359 187.855,64.9359 191,68.5C 192.333,65.8333 193.667,65.8333 195,68.5C 196.667,64.5 198.333,64.5 200,68.5C 201.136,65.9036 201.969,63.237 202.5,60.5C 203.5,60.5 204.5,60.5 205.5,60.5C 205.643,62.2624 205.309,63.9291 204.5,65.5C 208.63,65.75 209.296,67.75 206.5,71.5C 207.355,72.293 208.189,71.9597 209,70.5C 209.379,73.3103 208.212,75.3103 205.5,76.5C 203.575,76.4096 202.408,75.4096 202,73.5C 200.695,76.3064 198.528,77.1397 195.5,76C 194.874,75.2496 194.374,74.4162 194,73.5C 192.981,74.6872 191.814,75.6872 190.5,76.5C 186.509,75.8256 182.342,75.8256 178,76.5C 176.347,76.1802 175.347,75.1802 175,73.5C 172.537,76.9314 169.704,77.2647 166.5,74.5C 165.5,75.1667 164.5,75.8333 163.5,76.5C 162.381,73.4041 162.714,70.4041 164.5,67.5C 165.651,66.269 166.817,66.269 168,67.5C 169.903,65.1794 171.403,65.5127 172.5,68.5 Z M 172.5,68.5 C 172.771,70.3797 172.104,71.713 170.5,72.5C 170.66,70.847 171.326,69.5137 172.5,68.5 Z M 198.5,69.5 C 199.713,70.4971 199.546,71.4971 198,72.5C 197.53,71.4232 197.697,70.4232 198.5,69.5 Z"/></g>
<g><path style="opacity:0.672" fill="#faf7f6" d="M 223.5,60.5 C 224.5,60.5 225.5,60.5 226.5,60.5C 226.643,62.2624 226.309,63.9291 225.5,65.5C 226.817,65.3131 228.15,65.9798 229.5,67.5C 228.36,69.0778 227.86,70.7445 228,72.5C 231,68.5 234,64.5 237,60.5C 240.13,62.8292 239.63,64.6626 235.5,66C 236.667,66.5 237.5,67.3333 238,68.5C 239.333,65.8333 240.667,65.8333 242,68.5C 243.667,64.5 245.333,64.5 247,68.5C 249.756,67.2062 252.256,65.5396 254.5,63.5C 255.5,63.8333 256.167,64.5 256.5,65.5C 255.198,67.2012 253.531,68.3678 251.5,69C 252.308,69.3076 252.975,69.8076 253.5,70.5C 252.687,71.8139 251.687,72.9805 250.5,74C 251.623,75.0437 252.956,75.7104 254.5,76C 252.696,80.3041 249.696,83.4707 245.5,85.5C 243.503,85.0142 242.169,83.8475 241.5,82C 242.628,79.704 244.295,77.8707 246.5,76.5C 245.418,76.2514 244.085,76.0848 242.5,76C 241.874,75.2496 241.374,74.4162 241,73.5C 238.888,77.1271 237.221,77.1271 236,73.5C 234.174,77.0374 231.84,77.3707 229,74.5C 226.565,77.2277 224.565,76.8943 223,73.5C 222.632,74.91 221.799,75.91 220.5,76.5C 213.068,77.3803 211.068,74.3803 214.5,67.5C 216.998,64.8087 219.165,65.142 221,68.5C 222.136,65.9036 222.969,63.237 223.5,60.5 Z M 217.5,72.5 C 216.923,73.7733 216.257,73.7733 215.5,72.5C 215.97,71.537 216.637,71.537 217.5,72.5 Z"/></g>
<g><path style="opacity:0.668" fill="#faf7f6" d="M 282.5,68.5 C 285.518,66.4813 287.851,63.8147 289.5,60.5C 291.968,62.9906 291.302,64.8239 287.5,66C 290.871,66.1736 291.871,67.6736 290.5,70.5C 293.254,71.7626 292.92,73.5959 289.5,76C 286.189,76.2652 282.856,76.4319 279.5,76.5C 278.597,85.1114 273.93,88.6114 265.5,87C 262.379,81.7244 263.712,77.8911 269.5,75.5C 270.262,74.3717 270.929,73.2051 271.5,72C 270.446,70.6124 270.28,69.1124 271,67.5C 273.564,65.9231 276.397,64.9231 279.5,64.5C 280.386,63.675 280.719,62.675 280.5,61.5C 285.501,62.4231 285.501,63.9231 280.5,66C 281.381,66.7083 282.047,67.5416 282.5,68.5 Z M 282.5,68.5 C 282.771,70.3797 282.104,71.713 280.5,72.5C 280.66,70.847 281.326,69.5137 282.5,68.5 Z M 276.5,70.5 C 277.688,72.4959 277.021,73.3293 274.5,73C 275.381,72.2917 276.047,71.4584 276.5,70.5 Z M 271.5,77.5 C 274.07,78.484 274.07,79.6507 271.5,81C 272.5,81.3333 273.5,81.6667 274.5,82C 272.664,83.419 270.664,84.5857 268.5,85.5C 267.5,85.1667 266.833,84.5 266.5,83.5C 267.497,80.845 269.164,78.845 271.5,77.5 Z"/></g>
<g><path style="opacity:1" fill="#7cd65d" d="M 82.5,57.5 C 84.6433,59.1307 86.31,61.1307 87.5,63.5C 87.5,64.1667 87.5,64.8333 87.5,65.5C 85.5193,67.1436 83.5193,68.8103 81.5,70.5C 80.7585,67.6586 79.0918,65.6586 76.5,64.5C 79.1897,62.8065 81.1897,60.4732 82.5,57.5 Z"/></g>
<g><path style="opacity:0.8" fill="#6fbdb0" d="M 90.5,58.5 C 90.5,59.1667 90.8333,59.5 91.5,59.5C 91.5,60.5 91.5,61.5 91.5,62.5C 90.2719,63.3065 89.2719,64.3065 88.5,65.5C 88.1667,65.5 87.8333,65.5 87.5,65.5C 87.5,64.8333 87.5,64.1667 87.5,63.5C 88.3446,62.3285 89.0113,60.9952 89.5,59.5C 89.5,58.8333 89.8333,58.5 90.5,58.5 Z"/></g>
<g><path style="opacity:1" fill="#de9c5e" d="M 0.5,56.5 C 1.5,57.1667 2.5,57.8333 3.5,58.5C 4.65712,62.9757 6.99046,66.6423 10.5,69.5C 10.5,70.1667 10.1667,70.5 9.5,70.5C 4.1231,67.4392 1.1231,62.7725 0.5,56.5 Z"/></g>
<g><path style="opacity:0.836" fill="#62cb99" d="M 56.5,60.5 C 57.1667,59.1667 57.8333,57.8333 58.5,56.5C 58.238,57.9778 58.5713,59.3112 59.5,60.5C 63.3073,64.642 66.3073,69.3087 68.5,74.5C 63.1667,74.5 57.8333,74.5 52.5,74.5C 50.0072,68.2245 46.8405,62.2245 43,56.5C 42.5006,51.1771 42.334,45.8437 42.5,40.5C 45.7635,39.5178 49.0968,38.8511 52.5,38.5C 52.5,47.1667 52.5,55.8333 52.5,64.5C 53.8333,64.5 55.1667,64.5 56.5,64.5C 56.5,63.1667 56.5,61.8333 56.5,60.5 Z"/></g>
<g><path style="opacity:0.992" fill="#45bcdf" d="M 24.5,56.5 C 28.8212,62.4622 33.1546,68.4622 37.5,74.5C 32.1667,74.5 26.8333,74.5 21.5,74.5C 20.3472,70.861 18.6805,67.5277 16.5,64.5C 19.1667,64.5 21.8333,64.5 24.5,64.5C 24.5,61.8333 24.5,59.1667 24.5,56.5 Z"/></g>
<g><path style="opacity:0.689" fill="#faf7f6" d="M 307.5,65.5 C 308.496,65.4142 309.329,65.7476 310,66.5C 310.304,68.4405 311.137,70.1072 312.5,71.5C 311.098,75.3657 308.431,76.8657 304.5,76C 303.773,74.6012 303.273,73.1012 303,71.5C 302,72.8333 301,72.8333 300,71.5C 298.833,73.1667 297.667,74.8333 296.5,76.5C 295.914,76.2907 295.414,75.9574 295,75.5C 295.199,72.5609 296.032,69.7276 297.5,67C 300,67.1667 302.5,67.3333 305,67.5C 305.995,66.9341 306.828,66.2674 307.5,65.5 Z"/></g>
<g><path style="opacity:0.494" fill="#faf7f6" d="M 259.5,69.5 C 261.604,69.2011 263.604,69.5344 265.5,70.5C 263.401,72.5202 261.067,72.8535 258.5,71.5C 258.863,70.8165 259.196,70.1499 259.5,69.5 Z"/></g>
<g><path style="opacity:0.388" fill="#75ca89" d="M 10.5,69.5 C 12.3885,70.604 14.0552,71.9373 15.5,73.5C 13.1815,73.0075 11.1815,72.0075 9.5,70.5C 10.1667,70.5 10.5,70.1667 10.5,69.5 Z"/></g>
<g><path style="opacity:0.524" fill="#faf7f6" d="M 107.5,77.5 C 108.978,77.238 110.311,77.5713 111.5,78.5C 110.68,80.1112 109.346,80.7778 107.5,80.5C 107.5,79.5 107.5,78.5 107.5,77.5 Z"/></g>
</svg>
